<?xml version="1.0" encoding="iso-8859-1"?>
<!-- Uploaded to: SVG Repo, www.svgrepo.com, Generator: SVG Repo Mixer Tools -->
<!DOCTYPE svg PUBLIC "-//W3C//DTD SVG 1.1//EN" "http://www.w3.org/Graphics/SVG/1.1/DTD/svg11.dtd">
<svg fill="#000000" version="1.1" id="Capa_1" xmlns="http://www.w3.org/2000/svg" xmlns:xlink="http://www.w3.org/1999/xlink" 
	 width="800px" height="800px" viewBox="0 0 176.483 176.483"
	 xml:space="preserve">
<g>
	<g>
		<path d="M51.131,18.285C49.987,5.526,34.285,9.28,31.761,16.55c-2.518-7.27-18.217-11.024-19.36,1.735
			c-1.472,16.423,19.36,26.046,19.36,26.046S52.594,34.708,51.131,18.285z"/>
		<path d="M164.062,10.811c-1.472-16.42-21.681-11.597-24.926-2.24c-3.245-9.356-23.448-14.18-24.92,2.24
			c-1.892,21.137,24.92,33.521,24.92,33.521S165.948,31.948,164.062,10.811z"/>
		<path d="M85.449,74.405c-17.933,0-53.682-25.667-53.682-25.667c-0.319,20.123,37.897,56.291,37.897,56.291
			s-23.049,42.321-22.736,71.455c0,0,27.16-48.396,38.521-48.717c11.36-0.318,38.521,48.717,38.521,48.717
			c0.313-29.287-22.732-71.455-22.732-71.455s38.526-38.831,37.888-56.291C139.125,48.737,103.382,74.405,85.449,74.405z"/>
		<circle cx="85.449" cy="53.408" r="14.684"/>
	</g>
</g>
</svg>